<svg xmlns="http://www.w3.org/2000/svg" version="1.1" xmlns:xlink="http://www.w3.org/1999/xlink" width="7680" height="4032" viewBox="0 0 7680 4032"><rect width="7680" height="4032" fill="#f39c12"></rect><path d="M 1088.536485952938 2480.6085031242455 L 1086.6102497534046 2493.009812788514 L 1084.993412845542 2510.028443384818 L 1083.3658635554923 2530.517869431223 L 1081.4074902093976 2553.3315654457942 L 1078.7981811334 2577.3230059465964 L 1075.2178246536419 2601.345665451696 L 1070.3463090962655 2624.2530184791563 L 1063.8635227874126 2644.8985395470445 L 1055.4493540532258 2662.1357031734246 L 1044.7836912198477 2674.817983876363 L 1031.2837720988111 2683.283635035283 L 1014.9578075805251 2688.909564582982 L 996.3721456094434 2692.1072288675855 L 976.0931341300201 2693.2880842372197 L 954.6871210867092 2692.8635870400094 L 932.7204544239647 2691.24519362408 L 910.7594820862405 2688.844360337558 L 889.3705520179908 2686.0725435285685 L 869.1200121636695 2683.341199545236 L 850.5742104677302 2681.061784735687 L 832.9623796292726 2679.1636696728146 L 815.2689917979922 2677.1809203138732 L 797.6932540942371 2674.932036083532 L 780.4343736383556 2672.2355164064575 L 763.691557550696 2668.9098607073192 L 747.6640129516067 2664.773568410785 L 732.5509469614356 2659.6451389415242 L 718.5515667005313 2653.343071724204 L 705.865079289242 2645.6858661834926 L 694.6906918479161 2636.4920217440595 L 685.0443788838631 2625.582976563178 L 676.7284299615236 2613.0477524359744 L 669.6215247869419 2599.1062242438943 L 663.6023430661629 2583.978266868384 L 658.5495645052306 2567.883755190889 L 654.3418688101901 2551.0425640928547 L 650.8579356870855 2533.6745684557277 L 647.9764448419613 2515.999643160953 L 645.5760759808625 2498.2376630899776 L 643.5355088098332 2480.6085031242455 L 641.4316639765867 2461.9683612028243 L 639.1553110346957 2441.453773340732 L 637.0559030489931 2419.7051215333445 L 635.4828930843117 2397.3627877760364 L 634.7857342054847 2375.0671540641815 L 635.3138794773452 2353.4586023931556 L 637.4167819647262 2333.177514758334 L 641.4438947324606 2314.86427315509 L 647.7446708453817 2299.1592595788 L 656.6685633683225 2286.7028560248377 L 668.8397522105555 2277.4827661210097 L 684.2426082174054 2270.8280587023746 L 702.2668708577833 2266.3911635751874 L 722.3022796006001 2263.8245105457017 L 743.7385739147667 2262.7805294201726 L 765.965493269194 2262.9116500048553 L 788.3727771327931 2263.8703021060032 L 810.3501649744749 2265.3089155298712 L 831.2873962631503 2266.8799200827143 L 850.5742104677302 2268.2357455707865 L 869.0877362244019 2269.3485067919896 L 887.9481299929173 2270.563155131265 L 906.9096729775342 2272.0913752754245 L 925.7266463825108 2274.1448519112823 L 944.1533314121052 2276.9352697256504 L 961.9440092705754 2280.674313405342 L 978.8529611621794 2285.57366763717 L 994.6344682911753 2291.8450171079476 L 1009.0428118618211 2299.7000465044866 L 1021.8322730783748 2309.350440513601 L 1033.037294238078 2321.976101665866 L 1042.9318294423897 2338.0130065067588 L 1051.6294276018943 2356.556950745444 L 1059.2436376271767 2376.703730091086 L 1065.8880084288219 2397.5491402528496 L 1071.6760889174132 2418.1889769398986 L 1076.7214280035357 2437.719035861398 L 1081.1375745977748 2455.235112726513 L 1085.0380776107138 2469.833003244407 L 1088.536485952938 2480.6085031242455 Z" fill="#fdcb6e" opacity="0.831874534374227"></path><path d="M 4698.660013623319 1852.5105665741578 L 4698.387095121931 1864.4437897815287 L 4699.031311742262 1880.44053979519 L 4700.1235021604125 1899.5817424186214 L 4701.194505052487 1920.9483234553034 L 4701.775159094587 1943.6212087087158 L 4701.396302962816 1966.6813239823393 L 4699.5887753332745 1989.209595079654 L 4695.883414882065 2010.2869478041405 L 4689.811060285292 2028.9943079592786 L 4680.902550219056 2044.4126013485488 L 4668.70912862018 2057.5457582957292 L 4653.4680242339045 2069.9046318511605 L 4635.739052948956 2081.3305319081705 L 4616.082030654064 2091.6647683600827 L 4595.056773237955 2100.748651100223 L 4573.22309658936 2108.423490021918 L 4551.140816597004 2114.530595018492 L 4529.36974914962 2118.911275983271 L 4508.46971013593 2121.406842809581 L 4489.000515444665 2121.858605390748 L 4470.136585878188 2120.0486237984674 L 4450.838716516168 2116.020387812826 L 4431.34628466329 2110.0073518897348 L 4411.898667624241 2102.2429704851033 L 4392.735242703711 2092.9606980548424 L 4374.095387206386 2082.3939890548613 L 4356.218478436954 2070.77629794107 L 4339.3438937001 2058.341079169379 L 4323.711010300515 2045.3217871956988 L 4309.559205542884 2031.9518764759387 L 4296.16865692684 2017.4831087348489 L 4282.891219932507 2001.2576951244935 L 4270.073788835301 1983.6447642417575 L 4258.063257910638 1965.013444683523 L 4247.206521433938 1945.7328650466752 L 4237.85047368062 1926.172153928097 L 4230.342008926098 1906.7004399246728 L 4225.0280214457935 1887.6868516332854 L 4222.255405515123 1869.5005176508193 L 4222.371055409505 1852.5105665741578 L 4225.907808540986 1836.3888734613834 L 4232.801943482492 1820.5703466516989 L 4242.505516250759 1805.0686646636693 L 4254.470582862525 1789.8975060158614 L 4268.149199334527 1775.0705492268396 L 4282.993421683498 1760.6014728151697 L 4298.455305926177 1746.5039552994172 L 4313.9869080793005 1732.791675198147 L 4329.040284159603 1719.4783110299254 L 4343.067490183825 1706.5775413133174 L 4356.485381575017 1693.4318144518897 L 4370.093782884187 1679.661638872815 L 4383.91920382 1665.6977831300683 L 4397.988154091124 1651.971015777624 L 4412.327143406224 1638.9121053694575 L 4426.962681473965 1626.9518204595431 L 4441.921278003014 1616.5209296018556 L 4457.229442702037 1608.0502013503697 L 4472.913685279699 1601.9704042590602 L 4489.000515444665 1598.712306881903 L 4506.297758919158 1598.2564298145032 L 4525.226716221346 1600.1452282206692 L 4545.234109253827 1604.1523725066775 L 4565.766659919196 1610.0515330788035 L 4586.271090120044 1617.616380343324 L 4606.19412175897 1626.6205847065146 L 4624.982476738565 1636.837816574652 L 4642.0828769614245 1648.0417463540116 L 4656.942044330144 1660.0060444508701 L 4669.00670074732 1672.5043812715032 L 4678.194763276142 1687.013356143652 L 4685.034400163842 1704.588014198441 L 4689.887710089073 1724.3696945472236 L 4693.1167917304865 1745.4997363013526 L 4695.083743766736 1767.1194785721802 L 4696.150664876471 1788.3702604710602 L 4696.679653738345 1808.3934211093451 L 4697.0328090310095 1826.3302995983875 L 4697.572229433118 1841.322235049541 L 4698.660013623319 1852.5105665741578 Z" fill="#e74c3c" opacity="0.6475889372965509"></path><path d="M 3045.4868093323153 3634.6310659542737 L 3042.308854969504 3643.6841279865757 L 3038.714594890258 3655.7914334345414 L 3034.6256520720103 3670.269575525773 L 3029.9636494921942 3686.4351474878704 L 3024.650210128245 3703.604742548437 L 3018.6069569575952 3721.0949539350745 L 3011.7555129576785 3738.2223748753827 L 3004.0175011059287 3754.3035985969655 L 2995.31454437978 3768.655218327423 L 2985.568265756664 3780.593827294358 L 2974.324884309366 3791.0296589285435 L 2961.4135793980186 3801.1771166036374 L 2947.180414431082 3810.8090484615677 L 2931.971452817014 3819.6983026442613 L 2916.132757964275 3827.617727293647 L 2900.0103932813226 3834.340170551651 L 2883.950422176618 3839.6384805602033 L 2868.29890805862 3843.28550546123 L 2853.401914335787 3845.0540933966595 L 2839.6055044165796 3844.717092508419 L 2826.3871215574036 3841.8592759589624 L 2813.097575884527 3836.485527061729 L 2799.8929811112016 3828.998859185122 L 2786.9294509506794 3819.802285697546 L 2774.363099116211 3809.2988199674046 L 2762.350039321048 3797.8914753631025 L 2751.0463852784424 3785.9832652530436 L 2740.6082507016454 3773.9772030056324 L 2731.1917493039086 3762.2763019892736 L 2722.952994798483 3751.2835755723704 L 2715.9071250968523 3740.655598965395 L 2709.900654447209 3729.7836408291523 L 2704.83676106787 3718.6727547075493 L 2700.6186231771508 3707.3279941444903 L 2697.1494189933655 3695.754412683881 L 2694.332326734832 3683.9570638696273 L 2692.0705246198654 3671.941001245634 L 2690.2671908667803 3659.7112783558077 L 2688.825503693893 3647.272948744053 L 2687.64864131952 3634.6310659542737 L 2686.4782455867817 3621.196069549637 L 2685.2711919599005 3606.635185241924 L 2684.2535090888427 3591.3386457979655 L 2683.651225623573 3575.6966839845945 L 2683.690370214057 3560.099532568642 L 2684.596971510261 3544.9374243169414 L 2686.5970581621505 3530.6005919963222 L 2689.9166588196913 3517.4792683736187 L 2694.781802132848 3505.9636862156603 L 2701.4185167515884 3496.4440782892825 L 2710.201488168483 3488.8137340344183 L 2721.1044749090725 3482.608683974319 L 2733.75211517277 3477.683272500786 L 2747.769047158992 3473.8918440056236 L 2762.7799090671538 3471.088742880634 L 2778.4093390966696 3469.128313517618 L 2794.2819754469547 3467.8649003083806 L 2810.022456317425 3467.1528476447224 L 2825.2554199074957 3466.846499918446 L 2839.6055044165796 3466.800201521354 L 2853.6932312745435 3466.9231801063074 L 2868.252598698584 3467.3160568519143 L 2883.0784600691163 3468.1202664385987 L 2897.965668766557 3469.477243546788 L 2912.709078171321 3471.5284228569058 L 2927.1035416638233 3474.415239049378 L 2940.9439126244806 3478.279126804631 L 2954.0250444337075 3483.261520803088 L 2966.1417904719206 3489.5038557251755 L 2977.0890041195357 3497.1475662513176 L 2987.034545391123 3507.17557850387 L 2996.284414492867 3519.9872895488843 L 3004.8406750925997 3534.848840482333 L 3012.705390858154 3551.026372400186 L 3019.88062545736 3567.7860263984185 L 3026.3684425580523 3584.3939435730003 L 3032.1709058280608 3600.1162650199044 L 3037.2900789352198 3614.2191318351033 L 3041.72802554736 3625.9686851145684 L 3045.4868093323153 3634.6310659542737 Z" fill="#ff7675" opacity="0.8569237691030973"></path><path d="M 6277.600895115631 506.27702743519507 L 6272.204301345317 511.9835971159302 L 6265.2785776394285 519.5328452754409 L 6257.089631722257 528.5340517414448 L 6247.903371318103 538.5964963416602 L 6237.985704151262 549.329458903805 L 6227.602537946027 560.342219255597 L 6217.019780426697 571.2440572247544 L 6206.503339317567 581.644252638995 L 6196.319122342933 591.1520853260372 L 6186.733037227093 599.3768351135983 L 6177.700813011596 606.7932444568875 L 6168.922098561003 614.0702504541277 L 6160.27868133411 621.1084248975591 L 6151.6523487897175 627.8083395794212 L 6142.924888386628 634.0705662919537 L 6133.9780875836395 639.7956768273965 L 6124.693733839551 644.8842429779892 L 6114.953614613163 649.236836535972 L 6104.639517363276 652.7540292935842 L 6093.633229548689 655.3363930430658 L 6081.345648485323 657.292367484286 L 6067.57208568771 658.8964187400346 L 6052.770949912572 659.9981582369321 L 6037.400649916627 660.4471974015995 L 6021.919594456598 660.0931476606572 L 6006.786192289201 658.7856204407258 L 5992.458852171159 656.374227168426 L 5979.3959828591915 652.7085792703788 L 5968.055993110019 647.6382881732046 L 5958.8972916803605 641.0129653035241 L 5951.715512254772 632.3055909518673 L 5945.921731132516 621.3793349112927 L 5941.39752099238 608.669092862213 L 5938.024454513151 594.6097604850411 L 5935.684104373613 579.6362334601899 L 5934.258043252551 564.1834074680723 L 5933.627843828752 548.6861781891013 L 5933.675078781002 533.5794413036895 L 5934.281320788085 519.2980924922497 L 5935.3281425287905 506.27702743519507 L 5936.957566905717 494.1438451881103 L 5939.371309049719 482.2406534095957 L 5942.54047998196 470.5741106845879 L 5946.4361907236 459.150875598023 L 5951.0295522958 447.97760673483725 L 5956.291675719723 437.0609626799669 L 5962.193672016529 426.4076020183484 L 5968.706652207379 416.02418333491784 L 5975.8017273134365 405.91736521461166 L 5983.45000835586 396.0938062423661 L 5991.996071114504 385.87650838232327 L 6001.661305519194 374.8824564153687 L 6012.232043816049 363.55928315155444 L 6023.494618251188 352.3546214009323 L 6035.2353610707305 341.71610397355386 L 6047.240604520796 332.091363679471 L 6059.296680847507 323.9280333287355 L 6071.189922296979 317.67374573139926 L 6082.706661115333 313.776133697514 L 6093.633229548689 312.6828300371315 L 6104.187801959273 314.7747076869691 L 6114.713167700497 319.7991509199643 L 6125.182581505252 327.2535595504989 L 6135.569298106431 336.63533339295475 L 6145.846572236929 347.4418722617138 L 6155.987658629639 359.1705759711579 L 6165.965812017454 371.31884433566887 L 6175.754287133267 383.3840771696287 L 6185.326338709971 394.8636742874191 L 6194.655221480462 405.25503550342205 L 6204.05513526635 415.46961730844026 L 6213.728371356642 426.53499942689416 L 6223.480321685321 438.12276652359185 L 6233.116378186373 449.90450326334167 L 6242.441932793782 461.5517943109517 L 6251.262377441532 472.7362243312304 L 6259.383104063609 483.1293779889858 L 6266.609504593995 492.40283994902626 L 6272.746970966674 500.22819487615993 L 6277.600895115631 506.27702743519507 Z" fill="#ff7675" opacity="0.681987636219201"></path><path d="M 311.479503579782 772.8102546631231 L 308.75865284185767 779.0978944170107 L 305.5572194375961 787.4900566625909 L 301.8683522429028 797.5202207571793 L 297.68520013368357 808.7218660580919 L 293.00091198584397 820.6284719226443 L 287.8086366752898 832.7735177081521 L 282.1015230779267 844.6904827719309 L 275.8727200696602 855.9128464712965 L 269.11537652639606 865.9740881635645 L 261.8226413240401 874.4076872060506 L 253.7655419956687 881.7899593118378 L 244.8239764846446 888.9248790620894 L 235.15439928230245 895.6874141162413 L 224.91326487997685 901.9525321337293 L 214.25702776900255 907.5952007739894 L 203.3421424407141 912.4903876964578 L 192.3250633864463 916.5130605605702 L 181.36224509753362 919.5381870257627 L 170.6101420653109 921.4407347514712 L 160.22520878111263 922.0956713971316 L 149.73817191365143 921.4177437276153 L 138.72607495453167 919.4892520025097 L 127.41484762942564 916.436494123325 L 116.0304196640058 912.3857679915719 L 104.79872078394459 907.4633715087602 L 93.9456807149144 901.7956025764003 L 83.69722918258765 895.5087590960023 L 74.27929591263674 888.7291389690768 L 65.91781063073408 881.5830400971338 L 58.83870306255213 874.1967603816837 L 52.89680368091861 866.1604099133374 L 47.77716525522579 857.1152964742018 L 43.45105095599263 847.2645145030303 L 39.8897239537382 836.8111584385765 L 37.064447418981466 825.9583227195941 L 34.94648452224148 814.9091017848363 L 33.507098434037225 803.8665900730567 L 32.717552324887755 793.0338820230091 L 32.549109365312034 782.6140720734467 L 32.973032725829114 772.8102546631231 L 34.09805948405089 763.2107092028671 L 36.01440028403836 753.376085577024 L 38.6655286459841 743.4680339346229 L 41.99491809008072 733.6482044246927 L 45.946042136520845 724.0782471962626 L 50.46237430549708 714.9198123983614 L 55.487388117202 706.3345501800181 L 60.96455709182827 698.4841106902618 L 66.83735474956843 691.5301440781213 L 73.04925461061514 685.6343004926257 L 79.81949141730986 680.8363754580294 L 87.3284823018648 676.9908404073326 L 95.46147436927856 673.9813593526828 L 104.10371472454996 671.6915963062278 L 113.14045047267754 670.0052152801151 L 122.45692871866004 668.8058802864923 L 131.9383965674961 667.9772553375072 L 141.47010112418445 667.4030044453074 L 150.9372894937237 666.9667916220405 L 160.2252087811126 666.5522808798543 L 169.65288401814382 666.0022759879462 L 179.51655433581462 665.3500904351249 L 189.66728798793073 664.7651528129543 L 199.95615322829764 664.4168917129986 L 210.23421831072093 664.4747357268215 L 220.35255148900632 665.1081134459871 L 230.1622210169593 666.4864534620594 L 239.51429514838551 668.7791843666022 L 248.25984213709052 672.1557347511798 L 256.2499302368799 676.7855332073559 L 263.6736241497842 683.3455620997889 L 270.79040755817016 692.0362190175925 L 277.5569771863475 702.3120553890152 L 283.9300297586263 713.6276226423045 L 289.8662619993164 725.4374722057083 L 295.3223706327276 737.1961555074748 L 300.2550523831699 748.3582239758514 L 304.62100397495317 758.3782290390865 L 308.3769221323872 766.7107221254277 L 311.479503579782 772.8102546631231 Z" fill="#fdcb6e" opacity="0.6770167396800189"></path><path d="M 7465.662898616272 1709.1143944555 L 7463.895588977776 1714.7269011389337 L 7461.940502331229 1722.3149287057972 L 7459.732826668319 1731.4149896700237 L 7457.20774998073 1741.5635965455451 L 7454.300460260152 1752.297261846294 L 7450.946145498271 1763.1524980862032 L 7447.079993686773 1773.6658177792046 L 7442.6371928173485 1783.3737334392313 L 7437.552930881681 1791.8127575802155 L 7431.762395871458 1798.5194027160899 L 7425.121551258535 1803.7541036773891 L 7417.617589202563 1808.1422001703322 L 7409.382540726922 1811.7675620223783 L 7400.548436854998 1814.7140590609856 L 7391.24730861017 1817.0655611136126 L 7381.611187015822 1818.9059380077185 L 7371.772103095336 1820.319059570762 L 7361.862087872092 1821.3887956302012 L 7352.013172369477 1822.1990160134953 L 7342.357387610868 1822.8335905481028 L 7332.281548967628 1823.4518799318246 L 7321.308077251446 1824.0554417682965 L 7309.772411646206 1824.4914412437304 L 7298.009991335788 1824.6070435443362 L 7286.356255504074 1824.2494138563266 L 7275.146643334948 1823.265717365912 L 7264.716594012289 1821.503119259304 L 7255.401546719978 1818.8087847227139 L 7247.5369406418995 1815.029878942353 L 7241.4582149619355 1810.013567104432 L 7237.339131605627 1803.497937406746 L 7234.928362118697 1795.4959786549616 L 7233.923710115292 1786.267206947098 L 7234.022979209561 1776.0711383811752 L 7234.92397301565 1765.1672890552131 L 7236.324495147706 1753.8151750672312 L 7237.922349219879 1742.2743125152494 L 7239.415338846315 1730.8042174972868 L 7240.501267641162 1719.6644061113636 L 7240.877939218564 1709.1143944555 L 7240.329725272502 1698.4581074516343 L 7239.050221144217 1687.039708917714 L 7237.351065918752 1675.1790732957672 L 7235.543898681153 1663.196075027824 L 7233.940358516464 1651.4105885559134 L 7232.852084509729 1640.1424883220645 L 7232.590715745995 1629.7116487683065 L 7233.467891310304 1620.4379443366688 L 7235.795250287704 1612.6412494691806 L 7239.884431763239 1606.6414386078714 L 7246.00196347119 1602.6072541440808 L 7253.9727351016645 1600.3007202071901 L 7263.445928673455 1599.4316338462888 L 7274.070726205343 1599.7097921104685 L 7285.496309716121 1600.8449920488185 L 7297.371861224573 1602.5470307104301 L 7309.346562749486 1604.525705144393 L 7321.069596309649 1606.4908123997982 L 7332.190143923846 1608.1521495257357 L 7342.357387610868 1609.2195135712955 L 7352.049173830625 1609.6206916764509 L 7361.894784078401 1609.6165167939816 L 7371.77055292604 1609.4163546921889 L 7381.552814945386 1609.2295711393742 L 7391.117904708279 1609.265531903839 L 7400.342156786563 1609.7336027538847 L 7409.101905752081 1610.8431494578126 L 7417.273486176674 1612.8035377839242 L 7424.7332326321875 1615.824133500521 L 7431.357479690463 1620.1143023759041 L 7437.157530230938 1626.2515472155849 L 7442.267909260279 1634.3395828554974 L 7446.749784541173 1643.8770931095787 L 7450.6643238362985 1654.362761791764 L 7454.072694908342 1665.29527271599 L 7457.036065519988 1676.1733096961932 L 7459.61560343392 1686.4955565463094 L 7461.872476412822 1695.7606970802751 L 7463.867852219377 1703.4674151120264 L 7465.662898616272 1709.1143944555 Z" fill="#fdcb6e" opacity="0.8854465905481337"></path><path d="M 5532.066412158747 2987.990772638444 L 5528.588992036034 2992.6469428243513 L 5524.218976427595 2998.6944951086134 L 5519.082705484795 3005.869038489315 L 5513.3065193589955 3013.9061819645385 L 5507.016758201556 3022.5415345323704 L 5500.339762163842 3031.510705190896 L 5493.401871397215 3040.5493029381987 L 5486.329426053034 3049.3929367723636 L 5479.248766282665 3057.777215691475 L 5472.2862322374685 3065.4377486936196 L 5465.289863969796 3073.1148349719247 L 5458.044219870279 3081.4939351171543 L 5450.580417597707 3090.2284002238407 L 5442.929574810868 3098.9715813865173 L 5435.122809168548 3107.376829699716 L 5427.191238329534 3115.0974962579694 L 5419.165979952614 3121.786932155811 L 5411.078151696576 3127.0984884877735 L 5402.958871220207 3130.685516348389 L 5394.839256182293 3132.2013668321897 L 5386.494910169159 3131.4805888577084 L 5377.768898341872 3128.7907529112804 L 5368.793530721332 3124.434742439143 L 5359.701117328445 3118.715440887537 L 5350.623968184112 3111.935731702699 L 5341.694393309235 3104.398498330868 L 5333.044702724717 3096.4066242182835 L 5324.807206451461 3088.2629928111837 L 5317.114214510369 3080.270487555808 L 5310.098036922344 3072.7319918983926 L 5303.391466066109 3065.2901785596255 L 5296.653287315576 3057.4324310326747 L 5290.054800184426 3049.2286989225076 L 5283.767304186344 3040.7489318340904 L 5277.962098835009 3032.0630793723894 L 5272.810483644108 3023.2410911423704 L 5268.4837581273205 3014.3529167490005 L 5265.153221798332 3005.4685057972447 L 5262.990174170824 2996.6578078920707 L 5262.165914758478 2987.990772638444 L 5262.777045453048 2979.07995578665 L 5264.699590032057 2969.637570200213 L 5267.77398083785 2959.883051153965 L 5271.840650212764 2950.0358339227328 L 5276.740030499142 2940.315353781346 L 5282.3125540393285 2930.941046004634 L 5288.39865317566 2922.1323458674256 L 5294.838760250481 2914.1086886445496 L 5301.473307606133 2907.0895096108343 L 5308.142727584958 2901.2942440411093 L 5315.121332102998 2896.7627223626246 L 5322.726994240072 2893.289510083288 L 5330.865488084184 2890.726145098917 L 5339.442587723336 2888.9241653053296 L 5348.364067245533 2887.7351085983432 L 5357.5357007387765 2887.010512873776 L 5366.863262291072 2886.601916027445 L 5376.2525259904205 2886.360855955168 L 5385.609265924827 2886.138870552763 L 5394.839256182293 2885.787497716048 L 5404.309464470554 2885.123963002953 L 5414.321477498941 2884.2006857574056 L 5424.682997857852 2883.221994554222 L 5435.201728137681 2882.392217968215 L 5445.685370928828 2881.9156845741986 L 5455.941628821693 2881.996722946987 L 5465.778204406671 2882.839661661396 L 5475.002800274159 2884.648829292237 L 5483.4231190145565 2887.6285544143266 L 5490.846863218259 2891.9831656024776 L 5497.373222435407 2898.3785770021796 L 5503.256721507515 2906.972844616676 L 5508.538065962049 2917.208509807409 L 5513.257961326472 2928.528113935824 L 5517.457113128252 2940.3741983633627 L 5521.1762268948505 2952.1893044514695 L 5524.456008153735 2963.415973561587 L 5527.337162432368 2973.4967470551596 L 5529.860395258218 2981.874166293631 L 5532.066412158747 2987.990772638444 Z" fill="#e74c3c" opacity="0.8489445911294815"></path><path d="M 7146.724920603672 1761.2143061704337 L 7145.269638530027 1765.0962271093006 L 7143.600993856408 1770.2896776487883 L 7141.694122955719 1776.5007026243775 L 7139.524162200858 1783.4353468715492 L 7137.066247964724 1790.7996552257857 L 7134.295516620219 1798.2996725225678 L 7131.187104540241 1805.6414435973766 L 7127.716148097694 1812.5310132856937 L 7123.857783665474 1818.6744264230006 L 7119.587147616482 1823.7777278447777 L 7114.859286615271 1828.077016541069 L 7109.675011088771 1832.0083010102883 L 7104.0781030534445 1835.5774903504725 L 7098.112344525758 1838.790493659659 L 7091.821517522177 1841.653220035884 L 7085.249404059166 1844.1715785771858 L 7078.4397861531925 1846.3514783816006 L 7071.436445820719 1848.1988285471664 L 7064.283165078214 1849.7195381719189 L 7057.023725942138 1850.9195163538966 L 7049.279359094258 1851.9901872805783 L 7040.794233562923 1853.031769769267 L 7031.796538884475 1853.9133648627321 L 7022.514464595258 1854.5040736037456 L 7013.176200231616 1854.6729970350775 L 7004.009935329896 1854.2892361994984 L 6995.243859426438 1853.2218921397791 L 6987.106162057587 1851.3400658986905 L 6979.825032759688 1848.5128585190025 L 6973.628661069085 1844.609371043487 L 6968.241673772865 1839.3115183860023 L 6963.274444752094 1832.5783336765599 L 6958.783784184073 1824.6945952821593 L 6954.826502246109 1815.9450815697992 L 6951.45940911551 1806.6145709064783 L 6948.73931496958 1796.9878416591964 L 6946.723029985625 1787.3496721949523 L 6945.467364340951 1777.984840880744 L 6945.029128212861 1769.1781260835717 L 6945.465131778665 1761.2143061704337 L 6946.9738193148305 1753.7309775045694 L 6949.6065233836725 1746.2314790182977 L 6953.199386591264 1738.7992029322374 L 6957.588551543676 1731.5175414670084 L 6962.610160846982 1724.4698868432283 L 6968.100357107254 1717.739631281517 L 6973.895282930564 1711.4101670024927 L 6979.831080922982 1705.564886226775 L 6985.743893690585 1700.287181174982 L 6991.469863839438 1695.6604440677336 L 6997.258755052083 1691.6160730900351 L 7003.419251116218 1688.0294753010628 L 7009.875874795673 1684.9000562326912 L 7016.553148854273 1682.2272214167945 L 7023.37559605584 1680.0103763852478 L 7030.267739164204 1678.2489266699247 L 7037.154100943189 1676.9422778027008 L 7043.959204156622 1676.0898353154496 L 7050.607571568329 1675.6910047400459 L 7057.023725942138 1675.7451916083648 L 7063.381160050587 1676.3024891464665 L 7069.854531456677 1677.391343409849 L 7076.370110109923 1678.9786891745407 L 7082.854165959836 1681.0314612165712 L 7089.232968955931 1683.5165943119691 L 7095.43278904772 1686.4010232367639 L 7101.379896184717 1689.651682766984 L 7107.000560316434 1693.235507678659 L 7112.221051392386 1697.119432747817 L 7116.967639362084 1701.270392750488 L 7121.299833855054 1706.1405738556207 L 7125.327156569681 1712.0154804634158 L 7129.050895558779 1718.61202469678 L 7132.472338875157 1725.6471186786205 L 7135.592774571624 1732.8376745318437 L 7138.413490700993 1739.900604379356 L 7140.935775316069 1746.5528203440645 L 7143.160916469668 1752.5112345488758 L 7145.0902022146 1757.4927591166966 L 7146.724920603672 1761.2143061704337 Z" fill="#fdcb6e" opacity="0.734453230990279"></path><path d="M 4526.2134751429885 3829.377124023282 L 4524.188610302743 3833.7608080643367 L 4521.7768746925085 3839.6664390833253 L 4518.9873498765255 3846.742220815168 L 4515.829117419027 3854.636356994783 L 4512.311258884253 3862.997051357089 L 4508.442855836441 3871.472507637007 L 4504.232989839825 3879.710929569453 L 4499.690742458643 3887.360520889349 L 4494.8251952571345 3894.0694853316127 L 4489.645429799533 3899.4860266311634 L 4484.031825697801 3903.8587940182024 L 4477.9085092623345 3907.6907517103323 L 4471.3501821050295 3911.0115759235746 L 4464.4315458377805 3913.850942873953 L 4457.227302072486 3916.238528777488 L 4449.812152421039 3918.2040098502025 L 4442.260798495337 3919.777062308119 L 4434.647941907275 3920.987362367258 L 4427.048284268748 3921.8645862436424 L 4419.536527191652 3922.438410153294 L 4411.674029713841 3922.8063811199213 L 4403.139634073641 3922.9919165993383 L 4394.184266683649 3922.913498455727 L 4385.058853956465 3922.489608553272 L 4376.014322304689 3921.638728756154 L 4367.30159814092 3920.279340928557 L 4359.171607877757 3918.3299269346635 L 4351.875277927802 3915.7089686386557 L 4345.663534703651 3912.3349479047174 L 4340.787304617905 3908.1263465970287 L 4337.239643427615 3902.7595088467524 L 4334.756473236598 3896.139163163897 L 4333.203019977596 3888.5263679809227 L 4332.444509583352 3880.1821817302866 L 4332.346167986609 3871.367662844448 L 4332.773221120111 3862.3438697558663 L 4333.590894916602 3853.371860897 L 4334.6644153088255 3844.7126947003076 L 4335.859008229522 3836.6274295982485 L 4337.039899611439 3829.377124023282 L 4338.3204809426215 3822.728070006363 L 4339.903513193586 3816.2797025236214 L 4341.788276520775 3810.042794425276 L 4343.974051080633 3804.0281185615468 L 4346.4601170296055 3798.2464477826506 L 4349.245754524133 3792.708554938806 L 4352.330243720663 3787.425212880234 L 4355.712864775638 3782.4071944571506 L 4359.3928978455015 3777.6652725197755 L 4363.369623086697 3773.2102199183273 L 4367.6629762866005 3768.9958276610823 L 4372.284779387067 3764.9852522413007 L 4377.2221417762685 3761.2033147366765 L 4382.462172842377 3757.674836224904 L 4387.991981973564 3754.4246377836785 L 4393.798678557999 3751.477540490693 L 4399.869371983854 3748.858365423643 L 4406.191171639301 3746.591933660223 L 4412.751186912509 3744.7030662781262 L 4419.536527191652 3743.2165843550492 L 4426.9281847096845 3741.919172485939 L 4435.151189860152 3740.666581735566 L 4443.958709272093 3739.587232886357 L 4453.1039095745555 3738.809546720737 L 4462.33995739658 3738.4619440211327 L 4471.420019367211 3738.67284556997 L 4480.097262115492 3739.570672149675 L 4488.124852270468 3741.283844542673 L 4495.255956461181 3743.940783531391 L 4501.243741316678 3747.669909898255 L 4506.150946453625 3753.0795312867567 L 4510.268402562279 3760.374419280024 L 4513.691412882056 3769.0776905699377 L 4516.515280652373 3778.712461848376 L 4518.835309112647 3788.801849807219 L 4520.746801502297 3798.8689711383454 L 4522.345061060739 3808.436942533636 L 4523.725391027389 3817.028880684969 L 4524.983094641667 3824.167902284224 L 4526.2134751429885 3829.377124023282 Z" fill="#e74c3c" opacity="0.8991524522688397"></path><path d="M 135.8439862175295 1445.239068779428 L 134.03932491356247 1448.6731626158848 L 131.85473331045839 1453.2277730534 L 129.31535452656607 1458.6621282564408 L 126.44633168023437 1464.7354563894762 L 123.27280788981209 1471.2069856169735 L 119.8199262736481 1477.835944103401 L 116.11282995009121 1484.3815600132268 L 112.17666203749025 1490.6030615109187 L 108.03656565419406 1496.259676760945 L 103.71768391855147 1501.1106339277735 L 99.10766326229789 1505.5147604504432 L 94.11801069144313 1509.9210942171203 L 88.80966018574753 1514.2241790659627 L 83.24354572497144 1518.3185588351294 L 77.48060128887526 1522.0987773627783 L 71.58176085721936 1525.4593784870683 L 65.60795840976411 1528.2949060461578 L 59.62012792626985 1530.499903878205 L 53.67920338649699 1531.968915821369 L 47.8461187702059 1532.596485713808 L 41.89295926867745 1532.3432148739903 L 35.629914749908856 1531.2965770911235 L 29.175076208734836 1529.541424909474 L 22.646534639990122 1527.1626108733071 L 16.16238103850945 1524.2449875268896 L 9.840706399127562 1520.8734074144875 L 3.799601716679172 1517.1327230803663 L -1.8428420140009756 1513.1077870687927 L -6.968533798078152 1508.8834519240324 L -11.459382640717614 1504.5445701903514 L -15.43843709399183 1499.9038490634782 L -19.09652219999188 1494.7692417543926 L -22.417211698910982 1489.2184698302397 L -25.384079330942352 1483.3292548581635 L -27.9806988362792 1477.1793184053095 L -30.19064395511474 1470.846382038822 L -31.997488427642196 1464.408167325845 L -33.38480599405478 1457.942395833524 L -34.3361703945457 1451.526789129003 L -34.83515536930817 1445.239068779428 L -34.918927650024294 1438.7787361375872 L -34.62517006076151 1431.8982473668802 L -33.938230480291104 1424.7547562503682 L -32.842456787384315 1417.5054165711103 L -31.322196860812433 1410.3073821121666 L -29.36179857934672 1403.3178066565965 L -26.945609821758435 1396.69384398746 L -24.057978466818838 1390.592647887817 L -20.683252393299213 1385.1713721407277 L -16.805779479970795 1380.5871705292514 L -12.170880672489682 1376.7043090116154 L -6.6532994367538425 1373.2844054932912 L -0.4315174318974212 1370.330641678205 L 6.315983682945442 1367.8461992702842 L 13.410722248640601 1365.834259973454 L 20.674216606053914 1364.2980054916416 L 27.927985096051234 1363.2406175287736 L 34.99354605949844 1362.6652777887764 L 41.69241783726136 1362.5751679755758 L 47.84611877020588 1362.9734697930987 L 53.61549684078341 1363.9781466534514 L 59.27500413019869 1365.6514342407681 L 64.8165651274475 1367.9129226670202 L 70.23210432152567 1370.6822020441766 L 75.51354620142892 1373.878862484209 L 80.65281525615305 1377.4224940990869 L 85.64183597469386 1381.2326870007803 L 90.47253284604717 1385.2290313012602 L 95.13683035920872 1389.3311171124963 L 99.62665300317425 1393.4585345464595 L 104.0416739653282 1398.0071338598805 L 108.44564184266623 1403.280219894086 L 112.77659423860108 1409.0585646379373 L 116.97256875654554 1415.1229400802974 L 120.97160299991239 1421.254118210029 L 124.7117345721144 1427.2328710159934 L 128.13100107656433 1432.8399704870533 L 131.16744011667498 1437.8561886120706 L 133.7590892958591 1442.0622973799084 L 135.8439862175295 1445.239068779428 Z" fill="#e17055" opacity="0.7062165676121832"></path></svg>